<svg width="46" height="50" viewBox="0 0 46 50" fill="none" xmlns="http://www.w3.org/2000/svg">
<g clip-path="url(#clip0_242_209)">
<path d="M1.89429 25.067L1.3438 24.7821L1.33845 24.788L1.33333 24.7941L1.89429 25.067ZM23.3405 1.28301L23.891 1.5679L23.8963 1.56197L23.9014 1.55593L23.3405 1.28301ZM8.80174 0.727345L9.35413 1.0101L8.80174 0.727345ZM0.780941 9.72038L1.33333 10.0031L0.780941 9.72038ZM45 1.0101C45.3682 1.0101 45.6667 0.783981 45.6667 0.505051C45.6667 0.226119 45.3682 0 45 0V1.0101ZM0 49.2424C0 49.5214 0.298477 49.7475 0.666667 49.7475C1.03486 49.7475 1.33333 49.5214 1.33333 49.2424H0ZM0.833102 42.9916L1.38881 43.2705L0.833102 42.9916ZM2.44477 25.3519L23.891 1.5679L22.79 0.998133L1.3438 24.7821L2.44477 25.3519ZM22.7795 0H9.35413V1.0101H22.7795V0ZM8.24934 0.444589L0.228548 9.43757L1.33333 10.0031L9.35413 1.0101L8.24934 0.444589ZM0 10.0031V24.7941H1.33333V10.0031H0ZM0.228549 9.43757C0.0795954 9.60462 0 9.80159 0 10.0031H1.33333L0.228549 9.43757ZM9.35413 0C8.91125 0 8.49729 0.166591 8.24934 0.444589L9.35413 1.0101V0ZM23.9014 1.55593C24.4713 0.883663 23.8341 0 22.7795 0V1.0101L23.9014 1.55593ZM1.33333 24.7941H0C0 25.8024 1.73598 26.1884 2.45524 25.3399L1.33333 24.7941ZM1.38881 43.2705L38.2591 1.12312L37.1476 0.565122L0.277392 42.7126L1.38881 43.2705ZM38.5369 1.0101H45V0H38.5369V1.0101ZM0 43.4101V49.2424H1.33333V43.4101H0ZM38.2591 1.12312C38.3208 1.05254 38.4251 1.0101 38.5369 1.0101V0C37.978 0 37.4564 0.212199 37.1476 0.565122L38.2591 1.12312ZM0.277392 42.7126C0.0964802 42.9194 0 43.162 0 43.4101H1.33333C1.33333 43.3605 1.35263 43.3119 1.38881 43.2705L0.277392 42.7126Z" fill="#EFEA57"/>
</g>
<defs>
<clipPath id="clip0_242_209">
<rect width="46" height="50" fill="white"/>
</clipPath>
</defs>
</svg>
